<?xml version="1.0" standalone="no"?>
<!DOCTYPE svg PUBLIC "-//W3C//DTD SVG 20010904//EN"
 "http://www.w3.org/TR/2001/REC-SVG-20010904/DTD/svg10.dtd">
<svg version="1.0" xmlns="http://www.w3.org/2000/svg"
 width="800.000000pt" height="600.000000pt" viewBox="0 0 800.000000 600.000000"
 preserveAspectRatio="xMidYMid meet">

<g transform="translate(0.000000,600.000000) scale(0.100000,-0.100000)"
fill="#000000" stroke="none">
<path d="M3227 4918 c-2 -8 45 -108 105 -222 61 -114 108 -209 106 -211 -2 -2
-55 -26 -118 -53 -62 -27 -115 -53 -117 -58 -2 -7 546 -666 608 -729 14 -14
22 -16 30 -8 9 9 -12 76 -85 272 -54 144 -95 265 -92 269 3 5 38 21 78 37 40
15 79 33 86 40 11 9 -17 73 -147 332 l-160 321 -88 6 c-48 4 -113 9 -144 12
-43 4 -58 2 -62 -8z"/>
<path d="M2551 3515 c-164 -36 -274 -90 -405 -199 -156 -131 -281 -372 -302
-585 l-7 -71 -112 0 c-123 0 -145 -9 -145 -62 0 -47 25 -57 150 -60 l115 -3 6
-47 c56 -391 392 -712 782 -746 351 -31 665 134 847 444 69 118 113 287 122
469 l3 50 92 46 c214 108 446 103 637 -12 60 -36 61 -37 64 -85 1 -27 7 -87
13 -133 56 -448 427 -783 867 -782 158 0 253 22 387 89 258 128 444 382 484
660 l6 47 115 3 c126 3 150 13 150 62 0 50 -25 60 -147 60 l-110 0 -7 71 c-26
259 -175 506 -396 656 -230 156 -542 186 -805 79 -107 -44 -182 -93 -276 -183
-112 -107 -183 -222 -234 -376 -12 -37 -26 -67 -31 -67 -5 1 -41 17 -80 35
-116 55 -183 69 -329 69 -149 0 -213 -13 -343 -74 -56 -27 -84 -35 -87 -27 -2
7 -11 37 -21 67 -43 139 -127 272 -237 377 -127 121 -265 194 -429 227 -93 19
-250 19 -337 1z m402 -142 c48 -17 113 -46 145 -64 80 -48 220 -189 270 -274
228 -389 87 -889 -310 -1095 -106 -56 -209 -80 -334 -81 -205 0 -372 65 -519
203 -251 234 -317 617 -160 928 106 210 288 352 520 406 39 9 102 13 180 10
102 -3 133 -7 208 -33z m2542 7 c315 -99 525 -373 542 -705 12 -237 -74 -456
-242 -613 -147 -138 -314 -203 -519 -203 -384 1 -698 288 -748 685 -29 228 49
458 214 631 107 114 235 187 383 221 89 20 281 12 370 -16z"/>
<path d="M2182 2948 c-46 -58 -92 -217 -92 -317 1 -200 105 -399 264 -505 61
-40 104 -46 130 -17 31 34 16 61 -62 121 -83 62 -122 108 -163 195 -59 125
-60 273 -4 401 30 67 31 95 7 117 -22 20 -65 22 -80 5z"/>
<path d="M4740 2938 c-25 -27 -57 -112 -77 -203 -39 -184 27 -392 170 -537
123 -123 227 -147 227 -52 0 29 -7 38 -58 73 -119 81 -189 184 -218 321 -20
94 -8 191 36 290 23 53 28 74 21 93 -16 42 -68 50 -101 15z"/>
</g>
</svg>
